<svg viewBox="0 0 150 50" xmlns="http://www.w3.org/2000/svg">
    <defs>
        <linearGradient id="logoGradient" x1="0%" y1="0%" x2="100%" y2="0%">
            <stop offset="0%" style="stop-color:#00d1b2;stop-opacity:1" />
            <stop offset="100%" style="stop-color:#ff4081;stop-opacity:1" />
        </linearGradient>
        <filter id="metallicGlow" x="-30%" y="-30%" width="160%" height="160%">
            <feGaussianBlur stdDeviation="2" result="coloredBlur"/>
            <feColorMatrix type="matrix" values="0 0 0 0 0
                                              0 0 0 0 0
                                              0 0 0 0 0
                                              0 0 0 1 0" in="coloredBlur" result="greyscaleBlur"/>
            <feMerge>
                <feMergeNode in="greyscaleBlur"/>
                <feMergeNode in="SourceGraphic"/>
            </feMerge>
        </filter>
    </defs>
    <!-- Spartan Helmet -->
    <path d="M30 10 L20 20 Q30 25 40 20 L50 10 Q40 5 30 10 Z M40 20 L45 30 Q50 35 55 30 L50 20 Z M35 10 L45 10 L40 5 Z" 
          fill="url(#logoGradient)" filter="url(#metallicGlow)"/> <!-- Helmet with plume -->
    <!-- Plume -->
    <path d="M40 5 L38 0 L42 0 Z" fill="#ffffff" opacity="0.8"/>
    <!-- Blockchain Chain -->
    <path d="M20 40 L30 40 Q35 45 40 40 L50 40 Q55 45 60 40 L70 40" stroke="#ffffff" stroke-width="1" fill="none" opacity="0.7"/>
    <!-- Text "DeFiGuard" -->
    <text x="20" y="48" font-family="Bebas Neue, sans-serif" font-size="8" fill="#ffffff" font-weight="700" filter="url(#metallicGlow)">
        DeFiGuard
    </text>
</svg>